<svg viewBox="0 0 32 32" fill="none" xmlns="http://www.w3.org/2000/svg">
  <defs>
    <linearGradient id="fg" x1="0%" y1="0%" x2="100%" y2="100%">
      <stop offset="0%" stop-color="#4A73D5"/>
      <stop offset="50%" stop-color="#7D59D2"/>
      <stop offset="100%" stop-color="#CC4D99"/>
    </linearGradient>
  </defs>
  <rect width="32" height="32" rx="7" fill="#0A0D19"/>
  <path d="M 19 3.5 A 13 13 0 1 0 24.5 7.5" stroke="url(#fg)" stroke-width="1.8" stroke-linecap="round" fill="none"/>
  <g stroke="rgba(255,255,255,0.3)" stroke-width="0.8" stroke-linecap="round"><line x1="16" y1="2" x2="16" y2="4.5"/><line x1="22.5" y1="4.5" x2="21.2" y2="6.5"/><line x1="26.5" y1="9.5" x2="24.5" y2="10.2"/><line x1="28" y1="16" x2="25.5" y2="16"/><line x1="26.5" y1="22.5" x2="24.5" y2="21.8"/><line x1="22.5" y1="27.5" x2="21.2" y2="25.5"/><line x1="16" y1="30" x2="16" y2="27.5"/><line x1="9.5" y1="27.5" x2="10.8" y2="25.5"/><line x1="5.5" y1="22.5" x2="7.5" y2="21.8"/><line x1="4" y1="16" x2="6.5" y2="16"/><line x1="5.5" y1="9.5" x2="7.5" y2="10.2"/><line x1="9.5" y1="4.5" x2="10.8" y2="6.5"/></g>
  <path d="M 24.5 7.5 L 26.5 5.5" stroke="#CC4D99" stroke-width="1.2" stroke-linecap="round" opacity="0.5"/>
  <g stroke="#4A73D5" stroke-linecap="round" opacity="0.6"><circle cx="14" cy="13.5" r="1" fill="#4A73D5" stroke="none"/><line x1="14" y1="14.5" x2="13" y2="17" stroke-width="1"/><line x1="13" y1="17" x2="14.8" y2="18.5" stroke-width="0.9"/><line x1="13" y1="17" x2="11.2" y2="19" stroke-width="0.9"/><line x1="10.8" y1="14" x2="9.8" y2="14" stroke-width="0.5" opacity="0.5"/><line x1="10.5" y1="15.2" x2="9.5" y2="15.2" stroke-width="0.5" opacity="0.4"/><line x1="10.3" y1="16.3" x2="9.5" y2="16.3" stroke-width="0.5" opacity="0.3"/></g>
  <g stroke="#CC4D99" stroke-linecap="round"><circle cx="19" cy="15" r="1" fill="#CC4D99" stroke="none"/><line x1="19" y1="16" x2="18" y2="18.5" stroke-width="1"/><line x1="18" y1="18.5" x2="19.8" y2="20" stroke-width="0.9"/><line x1="18" y1="18.5" x2="16.2" y2="20.5" stroke-width="0.9"/><line x1="15.8" y1="15.5" x2="14.8" y2="15.5" stroke-width="0.5" opacity="0.5"/><line x1="15.5" y1="16.8" x2="14.5" y2="16.8" stroke-width="0.5" opacity="0.4"/><line x1="15.3" y1="18" x2="14.5" y2="18" stroke-width="0.5" opacity="0.3"/></g>
</svg>
